<?xml version="1.0" standalone="no"?>
<!DOCTYPE svg PUBLIC "-//W3C//DTD SVG 20010904//EN"
 "http://www.w3.org/TR/2001/REC-SVG-20010904/DTD/svg10.dtd">
<svg version="1.0" xmlns="http://www.w3.org/2000/svg"
 width="1024.000000pt" height="1024.000000pt" viewBox="0 0 1024.000000 1024.000000"
 preserveAspectRatio="xMidYMid meet">
<metadata>
Created by potrace 1.14, written by Peter Selinger 2001-2017
</metadata>
<g transform="translate(0.000000,1024.000000) scale(0.100000,-0.100000)"
fill="#000000" stroke="none">
<path d="M5245 9411 c-4 -3 -10 -6 -13 -7 -78 -9 -152 -99 -152 -185 0 -21 38
-108 55 -125 27 -28 65 -43 123 -50 56 -6 67 -4 92 15 16 11 33 21 39 21 18 0
61 103 61 147 0 54 -30 114 -72 146 -33 25 -122 50 -133 38z"/>
<path d="M5167 8724 c-6 -6 -107 -16 -154 -16 -13 0 -23 -3 -23 -7 0 -4 -24
-8 -54 -8 -29 0 -60 -4 -67 -9 -8 -4 -27 -7 -42 -5 -15 1 -34 -3 -42 -9 -7 -6
-29 -12 -47 -12 -18 0 -37 -3 -43 -7 -5 -3 -23 -6 -40 -7 -39 -3 -72 -10 -115
-25 -19 -7 -42 -14 -50 -17 -8 -3 -21 -4 -28 -3 -8 1 -25 -5 -38 -14 -14 -9
-33 -15 -42 -14 -28 2 -40 0 -54 -14 -12 -11 -66 -30 -128 -44 -14 -3 -39 -16
-56 -29 -17 -12 -44 -26 -60 -30 -16 -4 -40 -15 -54 -24 -14 -9 -37 -20 -52
-24 -15 -3 -33 -13 -41 -21 -8 -8 -18 -11 -22 -7 -3 4 -11 -1 -16 -11 -7 -11
-17 -16 -29 -12 -11 4 -23 -1 -32 -13 -7 -10 -28 -25 -45 -33 -18 -7 -33 -18
-33 -22 0 -5 -4 -6 -10 -2 -19 12 -61 -8 -76 -36 -8 -17 -23 -29 -33 -29 -11
0 -32 -11 -48 -24 -15 -13 -38 -26 -49 -30 -12 -4 -29 -15 -39 -26 -10 -11
-23 -20 -29 -20 -7 0 -27 -18 -45 -40 -18 -22 -38 -40 -43 -40 -6 0 -20 -10
-32 -22 -11 -13 -27 -23 -33 -24 -7 -1 -20 -2 -28 -2 -8 -1 -17 -13 -21 -27
-3 -14 -11 -25 -16 -25 -6 0 -25 -15 -42 -34 -18 -18 -42 -38 -54 -45 -13 -7
-20 -15 -18 -20 3 -4 -4 -14 -16 -22 -11 -8 -30 -24 -42 -37 -12 -13 -33 -35
-48 -50 -16 -15 -28 -30 -28 -34 0 -4 -20 -29 -45 -55 -31 -32 -43 -52 -39
-65 3 -11 0 -18 -7 -18 -12 0 -59 -49 -59 -62 0 -5 -6 -8 -14 -8 -8 0 -17 -13
-21 -30 -4 -16 -15 -36 -26 -44 -12 -8 -18 -22 -17 -37 3 -20 -1 -23 -19 -21
-17 2 -27 -6 -42 -37 -11 -21 -26 -41 -32 -43 -6 -2 -12 -13 -13 -23 -4 -32
-17 -55 -33 -55 -8 0 -13 -8 -12 -17 3 -36 -1 -53 -14 -53 -7 0 -20 -18 -30
-40 -9 -22 -21 -40 -27 -40 -5 0 -9 -3 -8 -7 1 -5 -4 -21 -10 -36 -7 -16 -12
-34 -12 -40 0 -7 -9 -19 -20 -27 -21 -15 -27 -40 -9 -40 6 0 9 -6 6 -12 -2 -7
-10 -12 -16 -10 -6 1 -11 -4 -12 -10 -3 -82 -7 -99 -25 -112 -14 -11 -16 -17
-7 -27 9 -9 7 -16 -7 -31 -10 -11 -16 -26 -13 -33 2 -8 -1 -24 -8 -37 -7 -13
-13 -34 -14 -48 -4 -43 -16 -84 -26 -91 -6 -3 -7 -18 -3 -32 4 -18 2 -27 -6
-27 -7 0 -10 -8 -7 -20 3 -11 1 -20 -3 -20 -10 0 -5 -183 5 -200 4 -6 1 -17
-5 -26 -8 -9 -10 -28 -7 -51 4 -21 2 -42 -5 -50 -7 -9 -7 -17 1 -26 7 -10 7
-17 0 -24 -8 -8 -8 -13 0 -17 8 -5 8 -13 1 -26 -7 -13 -5 -29 5 -53 8 -21 12
-48 9 -65 -4 -17 -1 -32 5 -36 8 -5 8 -13 1 -26 -7 -13 -6 -21 4 -30 8 -6 17
-29 21 -51 4 -21 11 -39 16 -39 5 0 9 -15 9 -34 0 -18 7 -39 15 -46 8 -7 15
-24 15 -39 0 -14 7 -35 15 -45 8 -11 15 -28 15 -38 0 -10 5 -18 10 -18 6 0 10
-9 10 -21 0 -11 8 -33 19 -47 19 -28 44 -94 46 -126 1 -10 9 -23 18 -28 10 -5
17 -16 17 -23 0 -8 6 -15 14 -15 12 0 27 -21 30 -42 1 -3 13 -18 29 -32 15
-14 27 -32 27 -40 0 -8 9 -18 20 -21 11 -4 18 -11 14 -16 -7 -11 76 -99 94
-99 7 0 18 -13 23 -29 6 -15 21 -33 34 -39 15 -7 25 -20 25 -32 0 -11 7 -20
15 -20 8 0 15 -5 15 -11 0 -6 9 -9 20 -6 13 3 20 0 20 -9 0 -18 31 -54 47 -54
7 0 13 -10 13 -23 0 -12 9 -28 20 -35 11 -7 20 -18 20 -26 0 -15 23 -37 42
-40 8 -1 24 -12 36 -24 12 -12 29 -22 37 -22 9 0 20 -11 25 -25 5 -14 16 -25
25 -25 8 0 14 -6 12 -12 -1 -7 3 -12 9 -11 7 1 20 -7 29 -17 10 -11 22 -20 28
-20 5 0 18 -9 28 -21 9 -11 20 -20 23 -20 13 2 46 -25 46 -37 0 -7 8 -15 18
-19 19 -7 105 -73 110 -85 2 -5 17 -8 32 -8 19 0 35 -8 45 -22 8 -13 20 -24
25 -24 6 -1 17 -2 25 -3 8 0 17 -12 21 -25 3 -15 16 -27 31 -31 14 -3 32 -13
40 -20 8 -8 23 -15 33 -15 11 0 33 -14 50 -30 17 -17 37 -30 44 -30 8 0 26 -7
42 -14 15 -8 31 -13 35 -11 4 3 12 -2 19 -10 7 -8 19 -15 27 -15 7 0 26 -12
42 -27 15 -16 38 -35 50 -43 13 -8 29 -19 35 -25 6 -5 18 -11 26 -13 8 -2 19
-10 23 -18 4 -8 15 -14 23 -14 15 0 39 -9 104 -39 14 -6 32 -15 40 -19 8 -5
33 -18 55 -28 22 -10 46 -25 53 -31 7 -7 18 -13 23 -13 5 0 11 -11 15 -25 3
-14 11 -25 16 -25 5 0 7 -13 3 -29 -4 -18 -2 -32 5 -36 7 -4 9 -18 5 -32 -3
-14 -1 -31 6 -39 11 -14 14 -159 3 -188 -3 -9 -1 -22 5 -30 8 -9 8 -22 0 -45
-6 -17 -8 -42 -5 -55 4 -16 1 -26 -9 -30 -8 -3 -15 -15 -15 -26 0 -11 -5 -20
-11 -20 -7 0 -10 -12 -7 -30 3 -17 1 -30 -4 -30 -4 0 -8 -7 -8 -15 0 -8 -8
-23 -18 -33 -10 -10 -30 -34 -45 -54 -16 -20 -44 -44 -62 -53 -19 -9 -35 -20
-35 -25 0 -5 -16 -16 -35 -26 -19 -9 -50 -33 -70 -55 -20 -22 -40 -36 -49 -33
-7 3 -26 -6 -41 -20 -15 -14 -34 -26 -41 -26 -7 0 -18 -9 -24 -20 -6 -11 -21
-20 -33 -20 -13 0 -38 -11 -57 -25 -19 -14 -40 -23 -47 -20 -7 2 -28 -4 -46
-13 -17 -10 -48 -17 -67 -16 -19 1 -40 -2 -46 -7 -7 -5 -27 -12 -44 -14 -18
-2 -38 -9 -43 -14 -6 -6 -21 -11 -33 -11 -13 0 -25 -4 -28 -8 -3 -5 -31 -14
-63 -21 -32 -7 -68 -19 -80 -27 -12 -8 -31 -14 -42 -14 -11 0 -26 -6 -33 -13
-7 -8 -24 -16 -38 -20 -14 -3 -35 -15 -47 -27 -12 -11 -31 -20 -43 -20 -11 0
-23 -7 -26 -15 -4 -8 -12 -15 -20 -15 -7 0 -25 -11 -40 -25 -15 -14 -31 -25
-36 -25 -13 0 -88 -74 -88 -87 0 -7 -6 -13 -13 -13 -14 0 -47 -35 -47 -50 0
-6 -7 -10 -15 -10 -9 0 -15 -9 -15 -21 0 -12 -8 -23 -20 -26 -10 -3 -22 -14
-26 -26 -3 -11 -15 -30 -25 -41 -11 -11 -19 -27 -19 -36 0 -8 -7 -26 -16 -38
-8 -12 -12 -27 -9 -32 7 -12 -48 -135 -65 -145 -6 -3 -7 -17 -4 -31 4 -16 2
-24 -6 -24 -9 0 -11 -11 -7 -35 3 -19 1 -37 -4 -41 -6 -3 -9 -16 -8 -27 1 -12
-3 -35 -10 -52 -7 -17 -9 -45 -6 -67 5 -28 2 -42 -9 -54 -11 -11 -13 -21 -7
-32 7 -12 5 -22 -5 -33 -21 -23 -8 -73 26 -97 22 -17 34 -19 65 -12 20 5 44 6
53 3 8 -4 20 0 26 8 20 27 48 31 63 10 11 -17 23 -20 66 -17 28 2 53 9 55 14
2 6 14 22 27 36 14 15 22 33 19 41 -4 9 0 15 10 15 14 0 20 11 17 32 0 4 14
19 33 35 18 15 38 38 45 50 7 13 28 27 51 33 22 6 40 14 40 19 0 4 11 14 25
21 27 14 34 51 12 68 -28 23 -58 24 -73 4 -8 -11 -28 -23 -44 -27 -17 -4 -30
-11 -30 -15 0 -5 -20 -21 -45 -36 -25 -14 -45 -30 -45 -35 0 -5 -7 -9 -15 -9
-7 0 -18 -7 -23 -15 -5 -10 -15 -13 -25 -9 -24 9 -21 17 12 32 17 7 28 19 25
26 -8 22 36 66 97 97 32 16 59 34 59 39 0 6 8 10 18 10 10 0 35 9 57 20 22 11
46 20 53 20 8 0 29 12 47 28 18 15 45 35 59 45 49 34 22 97 -31 76 -13 -5 -23
-12 -23 -18 0 -5 -16 -12 -36 -16 -20 -3 -45 -11 -55 -16 -11 -5 -28 -14 -39
-19 -11 -6 -28 -10 -38 -10 -10 0 -29 -10 -42 -22 -12 -12 -31 -22 -41 -23
-10 -1 -28 -10 -40 -20 -20 -19 -21 -19 -34 -1 -15 20 -10 46 9 46 6 0 28 15
48 34 20 19 54 40 74 46 36 12 126 68 132 83 2 4 10 7 18 7 8 0 14 5 14 10 0
6 7 10 16 10 25 0 134 63 134 77 0 7 0 16 0 21 0 4 -8 7 -18 7 -9 1 -23 4 -29
8 -7 5 -21 3 -32 -3 -11 -5 -28 -10 -38 -10 -10 0 -35 -9 -54 -19 -27 -15 -39
-17 -48 -8 -8 8 -11 7 -11 -5 0 -9 -11 -19 -24 -22 -14 -3 -37 -17 -53 -29
-15 -13 -38 -26 -50 -29 -22 -6 -22 -5 -5 20 9 14 16 29 14 32 -6 12 30 40 52
40 13 0 29 7 36 15 7 9 19 14 26 11 7 -3 28 10 48 28 20 20 50 36 73 41 21 3
52 14 68 24 17 10 46 21 65 24 18 4 42 14 51 23 10 9 36 18 58 21 23 3 41 9
41 12 0 4 29 6 65 6 50 -1 72 -6 95 -24 17 -12 34 -20 39 -17 4 3 17 -1 27 -9
10 -8 25 -15 32 -15 7 0 24 -8 39 -17 24 -16 81 -24 158 -23 39 0 177 -20 190
-28 6 -4 33 -7 60 -8 28 -1 64 -5 81 -9 20 -4 34 -3 38 4 9 14 63 14 72 0 3
-6 15 -9 25 -6 10 3 23 -1 30 -9 7 -8 30 -14 55 -14 42 0 81 -14 95 -34 11
-14 54 -10 82 9 31 20 33 28 12 45 -12 10 -15 10 -15 -3 0 -10 -6 -14 -15 -11
-8 4 -13 10 -10 14 8 13 -6 40 -21 40 -7 0 -23 13 -36 30 -12 16 -31 33 -42
36 -12 4 -28 12 -36 20 -9 7 -36 14 -60 15 -25 2 -48 7 -52 12 -3 6 -31 11
-62 12 -31 1 -59 5 -62 8 -3 3 -21 3 -39 0 -19 -3 -42 -2 -52 3 -10 4 -50 9
-89 10 -46 1 -81 8 -96 18 -14 9 -32 14 -41 10 -9 -3 -37 4 -62 16 -50 24 -72
47 -37 38 12 -4 25 -2 28 3 3 5 16 9 29 9 13 0 36 11 50 25 14 14 25 23 25 19
0 -3 16 8 35 25 20 17 41 31 48 31 16 0 157 134 157 149 0 6 7 11 15 11 8 0
15 7 15 15 0 16 34 38 44 28 3 -4 0 -16 -7 -27 -8 -12 -17 -37 -21 -58 -3 -20
-13 -39 -21 -42 -8 -3 -15 -11 -15 -19 0 -7 -20 -28 -45 -47 -25 -19 -45 -37
-45 -41 0 -4 -13 -10 -29 -14 -37 -8 -47 -33 -23 -57 26 -26 129 -36 138 -14
3 9 17 16 30 16 32 0 124 81 124 109 0 10 11 23 25 29 40 19 56 -6 48 -78 -6
-66 4 -90 41 -90 12 0 33 10 45 21 19 18 22 29 18 60 -3 22 -1 42 5 45 5 3 7
23 3 46 -4 22 -8 61 -9 87 -1 25 -5 52 -9 58 -6 9 -3 11 7 7 9 -3 16 -17 16
-30 0 -13 5 -24 10 -24 6 0 10 -13 10 -29 0 -56 19 -72 64 -55 21 8 21 43 0
51 -12 4 -14 14 -9 41 4 21 2 38 -4 42 -6 3 -13 28 -15 54 -2 26 -9 52 -14 59
-6 7 -11 32 -11 57 -2 44 -7 95 -11 95 -1 0 -3 14 -5 30 -2 17 -4 36 -6 44 -2
7 2 16 9 18 7 3 12 -4 12 -17 0 -11 7 -34 15 -49 8 -16 12 -40 9 -55 -2 -15 0
-26 6 -26 6 0 8 -5 5 -11 -4 -5 0 -18 8 -27 20 -24 28 -50 16 -58 -7 -4 -5
-12 4 -22 8 -10 18 -38 21 -64 4 -26 11 -50 17 -53 5 -4 9 -17 9 -29 0 -13 6
-42 14 -64 8 -22 12 -43 8 -46 -9 -10 -11 -36 -2 -36 14 0 29 -59 23 -93 -5
-31 -1 -38 41 -73 25 -21 46 -42 46 -48 0 -12 31 -35 49 -36 7 0 22 -11 32
-25 18 -21 27 -24 87 -23 57 0 73 4 109 29 23 16 46 29 52 29 6 0 11 5 11 10
0 6 23 33 50 61 51 51 56 63 41 88 -5 8 -2 25 7 44 9 17 17 41 18 52 1 11 5
36 9 55 4 19 7 43 7 53 -1 9 4 17 10 17 5 0 7 7 4 16 -4 9 -2 22 3 28 9 12 19
57 27 126 2 25 11 50 19 56 8 6 18 32 21 58 7 48 10 51 32 38 10 -7 10 -15 2
-37 -6 -15 -8 -36 -5 -46 9 -26 -13 -96 -31 -103 -13 -5 -14 -9 -4 -21 9 -11
9 -23 2 -43 -5 -16 -7 -35 -2 -41 9 -16 1 -61 -12 -61 -5 0 -8 -10 -6 -23 2
-14 11 -23 27 -25 27 -4 41 12 41 49 0 23 25 99 33 99 1 0 2 -66 2 -146 0
-141 1 -146 24 -165 30 -25 56 -24 74 2 12 16 14 45 11 130 -2 60 -2 109 0
109 12 0 33 -59 24 -68 -6 -6 1 -17 21 -31 18 -13 28 -27 24 -36 -3 -8 -1 -15
4 -15 6 0 26 -16 46 -35 20 -19 45 -35 56 -35 11 0 25 -8 30 -18 7 -14 23 -19
60 -21 42 -1 55 3 82 27 30 26 30 29 15 45 -10 9 -25 17 -34 17 -20 1 -62 34
-62 49 0 6 -6 11 -14 11 -18 0 -69 75 -72 106 -2 14 -10 37 -19 50 -14 21 -14
24 0 24 18 0 74 -51 89 -82 6 -12 30 -36 53 -53 23 -16 42 -35 42 -41 1 -15
31 -29 69 -33 6 0 12 -8 12 -16 0 -8 6 -15 13 -15 7 0 20 -11 30 -24 12 -16
36 -27 78 -36 57 -12 89 -30 53 -30 -9 0 -22 -7 -28 -15 -6 -8 -32 -16 -57
-18 -25 -2 -52 -8 -60 -13 -17 -10 -25 -12 -114 -19 -38 -3 -83 -7 -100 -9
-16 -2 -66 -7 -110 -10 -44 -4 -84 -11 -89 -16 -6 -6 -24 -10 -41 -10 -17 0
-41 -7 -53 -16 -12 -8 -22 -12 -22 -9 0 3 -13 -2 -30 -12 -16 -9 -30 -24 -30
-32 0 -18 -29 -40 -53 -41 -15 0 -18 -6 -13 -33 3 -17 3 -26 0 -19 -8 16 -34
15 -34 -2 0 -29 55 -50 81 -30 20 15 98 38 122 36 12 0 26 3 32 7 5 5 33 14
61 21 43 11 58 11 84 0 18 -8 35 -9 38 -4 4 5 32 9 62 8 30 0 70 3 88 9 36 10
80 16 157 22 28 2 62 8 78 14 17 7 36 7 51 1 19 -7 28 -5 42 11 9 10 27 19 39
19 13 0 27 6 33 13 6 7 23 14 39 15 15 1 33 8 39 16 13 19 59 30 76 20 18 -11
48 -12 54 -2 8 13 24 9 24 -5 0 -9 10 -12 30 -9 18 3 38 -2 48 -10 9 -8 37
-21 62 -28 25 -7 52 -20 61 -27 9 -8 34 -16 55 -19 53 -8 100 -30 118 -56 10
-13 22 -19 35 -15 11 3 22 -1 25 -8 2 -7 18 -16 34 -20 38 -8 58 -30 67 -74
l7 -35 -28 18 c-16 10 -39 28 -51 39 -12 11 -29 17 -37 14 -8 -3 -16 -3 -18 1
-6 13 -69 44 -101 50 -18 3 -54 6 -82 6 -43 1 -50 -2 -50 -19 0 -14 18 -29 60
-52 33 -18 68 -32 77 -33 9 0 23 -6 30 -12 7 -7 33 -26 58 -43 25 -16 47 -33
48 -37 2 -5 12 -8 22 -8 11 0 40 -15 65 -32 26 -18 56 -38 67 -45 11 -6 24
-17 29 -24 9 -15 -7 -39 -25 -39 -12 0 -102 44 -120 59 -6 5 -25 12 -41 16
-35 8 -68 20 -157 59 -47 21 -83 8 -72 -27 9 -27 29 -47 48 -47 8 0 21 -8 28
-17 12 -17 34 -29 91 -52 75 -30 147 -66 147 -72 0 -3 13 -12 29 -19 44 -18
74 -55 73 -90 -1 -26 2 -29 21 -25 24 5 50 -11 60 -37 4 -13 1 -18 -11 -18
-16 0 -41 16 -96 63 -11 11 -41 31 -66 45 -25 14 -46 30 -48 34 -2 4 -12 8
-22 8 -9 0 -24 10 -32 21 -12 19 -18 21 -44 12 -22 -7 -30 -16 -32 -40 -3 -27
3 -34 44 -62 26 -17 56 -31 66 -31 10 0 18 -7 18 -15 0 -9 13 -24 30 -33 16
-9 32 -27 35 -40 3 -12 14 -31 25 -42 11 -11 19 -21 19 -22 -6 -10 15 -48 27
-48 8 0 14 -7 14 -15 0 -21 36 -37 78 -33 30 2 38 7 40 25 2 13 5 23 8 23 9 0
49 -26 56 -36 4 -6 31 -12 60 -13 28 -1 54 -4 56 -6 3 -2 17 5 33 15 33 24 49
78 27 94 -10 8 -13 24 -10 54 3 26 0 42 -7 42 -6 0 -8 11 -5 30 4 16 3 37 -1
47 -4 10 -8 31 -8 47 0 16 -6 40 -13 54 -8 15 -10 30 -4 37 5 6 3 17 -5 28 -7
10 -10 27 -7 39 3 13 -1 26 -12 34 -10 7 -15 17 -12 23 4 5 2 13 -4 16 -17 10
-52 93 -45 105 3 5 -1 20 -9 32 -9 12 -16 30 -16 40 0 10 -4 18 -10 18 -5 0
-10 7 -10 15 0 8 -4 15 -10 15 -5 0 -10 9 -10 20 0 13 -10 24 -26 30 -14 6
-22 15 -19 20 4 6 -13 30 -37 54 -24 24 -49 53 -57 64 -8 11 -40 39 -73 62
-32 22 -58 45 -58 50 0 6 -11 10 -24 10 -13 0 -26 6 -29 14 -3 7 -18 17 -34
20 -15 4 -35 13 -43 20 -8 7 -64 30 -125 50 -60 21 -117 40 -125 43 -20 8 -41
14 -66 18 -12 1 -31 8 -42 14 -11 6 -32 11 -46 11 -14 0 -28 5 -32 11 -4 6
-20 8 -39 5 -19 -4 -36 -3 -39 2 -3 5 -30 15 -60 22 -31 7 -63 21 -72 32 -10
10 -30 18 -45 18 -38 0 -59 9 -59 26 0 8 -6 14 -14 14 -7 0 -24 10 -38 23 -13
12 -34 23 -45 24 -11 1 -39 20 -61 42 -22 22 -51 43 -66 47 -15 3 -26 13 -26
23 0 20 -19 41 -37 41 -18 0 -73 57 -73 75 0 8 -7 15 -15 15 -8 0 -15 4 -15 9
0 5 -5 22 -12 38 -6 15 -10 32 -9 37 1 4 -3 14 -9 21 -6 7 -10 17 -9 21 2 15
-13 54 -21 54 -4 0 -7 17 -5 37 1 21 0 42 -3 47 -17 29 -5 275 15 326 4 8 7
29 7 45 1 17 8 39 16 51 22 30 105 84 129 84 12 0 21 6 21 14 0 16 37 29 42
15 2 -6 13 -1 25 11 13 11 36 23 53 26 16 4 30 13 30 20 0 8 9 14 21 14 12 0
34 11 51 25 16 14 35 25 43 25 7 0 20 11 29 25 10 15 26 25 40 25 13 0 29 7
36 15 7 8 16 13 20 10 4 -2 26 4 48 15 23 11 46 20 52 20 5 0 10 4 10 9 0 5
20 19 45 31 25 12 45 25 45 30 0 4 13 10 29 13 18 4 32 14 36 27 3 11 13 20
22 20 8 0 24 11 35 25 11 14 25 25 31 25 16 0 86 38 105 57 8 8 26 19 40 24
13 5 26 18 29 28 2 10 17 25 31 32 15 8 29 16 32 19 15 16 89 70 95 70 4 0 21
14 37 30 15 17 35 30 42 30 8 0 24 12 36 28 12 15 31 29 43 32 13 3 30 22 40
43 9 20 22 37 27 37 6 0 10 11 10 25 0 14 5 25 12 25 13 0 58 48 58 62 0 4 5
8 11 8 13 0 46 32 103 103 21 26 45 47 52 47 8 0 14 6 14 13 0 8 11 20 25 27
16 9 25 22 25 38 0 14 3 23 6 19 8 -7 39 22 39 37 1 6 15 26 32 45 18 19 30
38 27 43 -4 5 3 12 15 15 12 3 21 11 21 18 0 7 7 16 16 19 10 4 14 14 11 26
-3 11 -1 20 3 20 5 0 12 10 15 23 4 12 24 58 45 102 21 44 42 93 46 110 4 16
13 35 20 42 7 7 11 24 10 37 -2 15 3 27 12 31 8 3 12 13 9 25 -3 10 -1 20 4
22 4 2 10 21 13 42 3 22 10 42 16 46 6 4 8 18 5 32 -4 14 -2 29 3 32 7 4 7 17
2 34 -5 19 -3 37 6 53 16 29 18 65 3 75 -8 4 -7 9 2 15 12 8 11 11 -1 19 -8 5
-10 10 -3 10 12 0 13 136 0 157 -4 6 -4 14 1 17 10 6 13 186 3 186 -3 0 -6 19
-5 43 0 23 -5 49 -11 57 -11 13 -39 122 -48 188 -2 12 -9 28 -15 34 -7 7 -12
20 -12 29 0 10 -5 19 -11 21 -6 2 -12 22 -13 44 -1 24 -9 49 -20 59 -9 10 -15
23 -12 31 3 7 -6 35 -20 63 -13 28 -24 55 -24 60 0 6 -8 16 -19 23 -10 7 -21
24 -25 38 -15 49 -31 80 -42 80 -6 0 -14 14 -17 30 -4 20 -13 30 -24 30 -15 0
-16 2 -3 10 13 8 13 13 -2 37 -10 15 -23 27 -29 25 -6 -2 -9 4 -6 11 3 8 -8
28 -23 46 -16 17 -26 31 -23 31 4 0 -2 9 -13 20 -36 36 -44 49 -44 71 0 11 -8
23 -17 25 -10 3 -28 21 -41 40 -12 19 -27 32 -32 29 -6 -3 -10 1 -10 9 0 16
-36 74 -64 101 -9 9 -16 21 -16 27 0 12 -39 48 -52 48 -4 0 -8 6 -8 14 0 8
-15 27 -34 43 -18 15 -37 38 -40 50 -4 13 -18 24 -36 28 -17 4 -30 11 -30 17
0 11 -25 38 -35 38 -9 0 -35 27 -35 36 0 12 -34 33 -53 34 -10 0 -20 7 -23 15
-4 8 -12 15 -20 15 -8 0 -14 5 -14 10 0 6 -7 10 -15 10 -9 0 -24 13 -33 30
-10 18 -25 30 -38 30 -11 0 -31 11 -44 25 -13 14 -29 25 -35 25 -6 0 -26 12
-44 28 -19 15 -36 27 -40 27 -22 2 -51 18 -51 29 0 19 -23 36 -54 38 -14 1
-26 7 -26 12 0 5 -3 7 -6 3 -9 -9 -61 20 -67 38 -4 8 -16 15 -27 15 -12 0 -30
9 -42 20 -12 10 -24 17 -28 15 -4 -3 -22 2 -39 11 -18 9 -35 14 -38 11 -3 -3
-14 3 -26 14 -11 10 -28 19 -36 20 -9 0 -29 9 -46 20 -44 28 -75 40 -86 33 -6
-3 -18 1 -27 9 -9 9 -30 19 -47 23 -16 3 -38 13 -47 21 -9 8 -29 14 -45 13
-49 -4 -63 0 -63 14 0 10 -16 17 -47 21 -27 4 -58 11 -70 17 -12 6 -31 8 -42
5 -11 -3 -25 1 -31 8 -6 8 -19 13 -28 13 -9 -1 -35 2 -57 7 -70 14 -79 16
-110 20 -16 2 -55 9 -85 15 -30 7 -80 14 -110 16 -30 2 -73 6 -95 8 -55 7 -54
7 -150 6 -47 -1 -89 1 -94 4 -4 3 -11 3 -14 0z m-27 -294 c0 -11 88 -8 107 3
6 4 34 2 62 -4 36 -7 55 -7 71 1 11 6 26 8 32 4 7 -4 32 -9 57 -10 94 -6 177
-15 201 -21 14 -3 31 -5 38 -4 6 1 12 -2 12 -7 0 -4 40 -14 90 -21 49 -7 93
-17 96 -22 3 -6 12 -8 20 -5 16 6 105 -9 142 -24 45 -19 20 -26 -85 -24 -114
1 -143 -8 -143 -47 0 -37 33 -42 255 -39 140 2 164 0 169 -9 4 -5 15 -7 27 -4
11 3 30 1 42 -5 12 -5 37 -17 56 -25 47 -21 23 -26 -114 -25 -133 0 -165 -9
-165 -51 0 -19 7 -34 18 -39 16 -9 230 -7 239 2 3 2 18 0 35 -5 19 -5 38 -4
50 2 14 8 28 7 49 -1 16 -7 35 -10 44 -7 8 4 17 2 20 -3 3 -5 12 -7 20 -3 9 3
22 0 30 -7 8 -7 24 -10 35 -7 11 3 22 1 25 -4 3 -4 12 -6 20 -2 8 3 15 0 15
-6 0 -6 15 -20 32 -31 l33 -20 -84 6 c-47 3 -92 9 -100 14 -19 10 -162 7 -179
-4 -15 -9 -16 -53 -1 -62 10 -6 29 -9 120 -18 14 -2 31 -6 37 -10 6 -4 27 -4
47 0 19 3 43 3 52 -1 10 -4 33 -7 50 -6 18 2 42 -4 55 -13 16 -11 25 -13 35
-4 9 7 17 7 28 -2 29 -24 13 -47 -20 -29 -9 5 -90 5 -147 0 -12 -1 -18 -9 -18
-26 0 -22 9 -30 33 -26 4 1 18 -4 30 -11 12 -6 49 -13 82 -14 33 -2 76 -5 95
-8 19 -2 67 -7 107 -11 54 -6 77 -13 92 -29 13 -14 17 -26 12 -35 -7 -11 -20
-10 -74 6 -36 11 -70 17 -76 13 -6 -3 -35 -3 -64 1 -58 7 -87 -3 -87 -30 0
-22 21 -33 73 -36 43 -3 97 -23 97 -36 0 -5 -18 -9 -39 -9 -31 0 -41 -4 -46
-20 -10 -31 10 -47 68 -53 72 -8 148 -25 162 -37 6 -5 23 -7 38 -5 18 4 33 -1
48 -16 15 -15 33 -21 65 -21 24 0 44 -4 44 -10 0 -7 5 -6 14 1 12 10 19 6 37
-18 13 -17 28 -31 34 -31 6 0 26 -13 45 -28 19 -16 43 -31 53 -35 18 -7 33
-34 24 -43 -3 -3 -18 1 -34 9 -15 9 -41 18 -56 22 -16 3 -32 16 -39 30 -9 19
-19 25 -43 25 -18 0 -47 10 -66 23 -37 25 -140 53 -204 56 -54 3 -77 7 -98 16
-9 4 -32 5 -50 2 -17 -4 -63 -9 -102 -11 -38 -3 -74 -6 -80 -7 -12 -1 -100 9
-137 16 -15 3 -30 1 -33 -5 -3 -6 -17 -7 -30 -4 -12 3 -26 1 -29 -5 -4 -5 -13
-8 -21 -4 -8 3 -15 1 -15 -5 0 -6 -24 -13 -52 -17 -29 -4 -66 -13 -82 -21 -16
-7 -33 -11 -38 -8 -5 3 -17 3 -26 -1 -9 -4 -27 -9 -40 -11 -24 -3 -52 -26 -52
-44 0 -6 -6 -10 -12 -9 -37 5 -49 -2 -46 -23 3 -21 8 -23 53 -22 67 2 149 13
210 29 28 7 57 9 65 5 18 -9 121 -7 138 4 6 4 21 2 33 -4 11 -7 49 -14 82 -16
34 -2 73 -7 87 -11 14 -3 36 -7 50 -9 143 -18 196 -26 230 -34 19 -5 52 -12
74 -16 21 -3 48 -8 60 -11 11 -2 32 -7 46 -10 14 -2 32 -7 40 -11 19 -7 29 -9
57 -11 12 0 27 -11 34 -22 10 -20 9 -21 -12 -15 -13 4 -44 8 -69 9 -42 2 -45
0 -45 -23 0 -18 8 -27 30 -35 16 -5 38 -18 47 -27 10 -10 29 -18 42 -18 14 0
27 -4 30 -9 3 -5 25 -14 50 -20 24 -6 46 -17 49 -25 3 -8 29 -25 58 -37 43
-19 54 -29 70 -66 10 -24 23 -43 29 -43 14 0 69 -62 70 -77 0 -7 3 -13 8 -13
10 0 40 -57 48 -92 5 -22 3 -28 -10 -28 -9 0 -16 7 -16 15 0 8 -4 15 -10 15
-5 0 -16 14 -25 30 -9 17 -22 30 -30 30 -8 0 -17 11 -21 25 -3 13 -21 34 -38
45 -18 11 -45 31 -60 45 -49 46 -210 117 -335 150 -126 32 -321 45 -441 29
-78 -10 -245 -53 -311 -80 -168 -69 -331 -184 -469 -331 -91 -98 -187 -237
-248 -358 -45 -90 -96 -241 -99 -295 -6 -85 -13 -123 -27 -139 -19 -21 -30
-66 -20 -82 9 -16 11 -74 3 -122 -4 -21 -2 -40 3 -43 5 -4 7 -16 4 -28 -5 -21
13 -76 26 -76 3 0 4 -9 1 -20 -3 -11 0 -20 6 -20 7 0 8 -8 1 -25 -8 -20 -6
-27 6 -32 9 -3 14 -13 11 -25 -3 -11 3 -27 16 -38 11 -11 18 -23 14 -26 -7 -8
17 -34 32 -34 5 0 16 -12 23 -27 7 -16 23 -32 35 -38 12 -5 28 -22 34 -37 9
-23 18 -28 46 -28 26 0 33 -4 31 -17 -2 -10 6 -19 23 -23 14 -4 41 -14 60 -23
45 -20 163 -36 214 -30 40 5 65 18 65 34 0 17 -33 39 -61 39 -16 0 -29 5 -29
12 0 6 -3 9 -6 5 -3 -3 -39 14 -79 39 -40 24 -77 44 -83 44 -5 0 -15 7 -22 15
-7 8 -15 13 -19 10 -16 -9 -121 126 -121 157 0 14 6 19 23 16 15 -2 21 -9 19
-20 -2 -10 3 -18 9 -18 7 0 38 -20 69 -44 172 -135 400 -208 660 -209 264 -1
504 70 711 210 126 86 316 284 350 364 7 19 28 56 46 84 18 27 31 55 29 62 -3
6 4 19 15 29 10 9 19 24 19 32 0 9 10 44 21 79 16 47 26 63 40 63 22 0 27 -45
7 -53 -10 -3 -10 -9 -1 -25 8 -14 9 -23 3 -27 -6 -4 -8 -10 -5 -15 3 -5 1 -11
-4 -14 -5 -4 -9 -25 -9 -49 1 -27 -8 -62 -25 -96 -15 -30 -27 -65 -27 -78 0
-13 -4 -23 -10 -23 -5 0 -10 -11 -10 -25 0 -20 -5 -24 -22 -22 -18 1 -25 -5
-33 -30 -5 -18 -13 -33 -18 -33 -10 0 -57 -50 -57 -62 0 -5 -11 -13 -25 -18
-14 -5 -25 -15 -25 -22 0 -12 -16 -32 -87 -109 -40 -45 -71 -69 -105 -84 -19
-7 -41 -21 -48 -30 -8 -9 -30 -25 -49 -36 -20 -11 -51 -29 -69 -40 -24 -16
-36 -18 -46 -10 -10 8 -16 7 -26 -4 -7 -8 -18 -15 -24 -15 -6 0 -27 -13 -46
-29 -25 -20 -51 -30 -91 -35 -31 -4 -65 -14 -75 -21 -11 -8 -28 -15 -40 -15
-11 0 -35 -7 -52 -16 -18 -8 -37 -12 -44 -7 -16 9 -48 5 -65 -9 -9 -7 -13 -7
-13 2 0 7 -7 10 -17 5 -10 -3 -78 -8 -151 -10 -73 -2 -138 -7 -144 -11 -7 -4
-73 -9 -147 -10 -109 -2 -139 1 -153 13 -21 19 -52 13 -56 -10 -4 -21 24 -57
45 -57 15 0 64 -29 74 -43 4 -5 19 -10 35 -12 59 -6 129 -16 133 -20 2 -2 12
0 22 6 13 6 25 6 38 -3 15 -9 28 -9 58 0 39 12 130 24 195 27 20 0 44 8 54 16
16 13 17 12 11 -5 -6 -16 -3 -18 30 -12 41 6 109 13 186 19 32 3 55 11 71 26
19 18 31 21 54 16 22 -4 31 -2 36 10 4 11 12 14 26 10 11 -4 20 -2 20 4 0 6 7
8 16 4 9 -3 26 5 42 20 15 14 45 30 67 36 44 12 64 26 81 56 6 11 24 27 41 36
17 10 48 35 69 57 22 21 55 48 74 58 45 25 59 43 60 77 0 20 5 27 19 27 13 0
20 9 24 30 5 20 11 28 21 24 8 -3 19 3 26 15 17 33 29 24 16 -11 -27 -75 -81
-157 -122 -183 -23 -15 -72 -55 -110 -91 -40 -38 -99 -80 -139 -100 -95 -48
-132 -69 -151 -85 -10 -8 -26 -13 -36 -11 -11 2 -27 -2 -36 -10 -35 -27 -154
-90 -160 -83 -2 2 -16 -2 -31 -10 -15 -7 -47 -13 -72 -13 -33 1 -54 -5 -77
-22 -17 -12 -37 -20 -45 -17 -8 3 -23 -2 -34 -12 -10 -10 -31 -21 -46 -25 -37
-9 -45 -32 -18 -57 11 -11 21 -16 21 -11 0 5 36 12 80 15 44 4 89 11 99 17 11
5 34 10 53 10 18 0 53 1 77 1 25 0 68 8 97 18 57 19 66 12 12 -9 -18 -6 -50
-21 -70 -31 -25 -13 -39 -16 -43 -9 -5 8 -14 7 -28 -3 -12 -8 -40 -17 -62 -21
-22 -4 -50 -14 -63 -22 -13 -9 -47 -17 -75 -18 -55 -3 -105 -14 -122 -26 -5
-4 -41 -11 -80 -14 -91 -9 -225 -50 -225 -68 0 -5 -9 -8 -20 -8 -44 0 -8 -46
43 -55 18 -3 48 -3 67 1 19 3 55 7 80 8 25 1 54 5 65 9 24 8 149 29 187 31 14
0 30 4 34 8 4 5 17 8 28 8 18 0 17 -3 -8 -19 -17 -11 -33 -18 -37 -15 -4 2 -9
-2 -12 -10 -5 -13 -50 -26 -107 -31 -14 -2 -43 -10 -65 -19 -36 -14 -91 -22
-196 -30 -19 -1 -40 -6 -46 -9 -6 -4 -14 -1 -16 5 -4 10 -8 10 -15 -1 -6 -9
-17 -11 -28 -6 -41 16 -74 15 -94 -5 -24 -24 -25 -43 -3 -61 20 -17 140 -20
237 -7 72 10 100 2 71 -22 -16 -13 -39 -16 -225 -28 -58 -4 -110 -11 -117 -15
-6 -4 -26 -9 -43 -11 -18 -2 -35 -8 -39 -12 -11 -16 -50 -34 -72 -34 -11 0
-30 -5 -42 -12 -12 -6 -49 -13 -82 -15 -94 -7 -120 -48 -55 -87 29 -17 34 -17
108 0 42 10 103 17 135 16 33 -1 73 5 94 13 20 8 39 12 42 9 3 -4 0 -9 -6 -11
-7 -3 -13 -11 -13 -18 0 -16 -22 -25 -60 -25 -15 0 -40 -6 -55 -14 -27 -14
-246 -33 -335 -28 -48 2 -85 -12 -95 -36 -8 -22 14 -42 46 -42 15 0 31 -5 34
-10 3 -6 18 -7 33 -4 l27 6 -30 -20 c-39 -25 -95 -36 -155 -33 -70 5 -210 -15
-210 -29 0 -4 -15 -4 -34 0 -19 4 -40 4 -47 -1 -7 -4 -18 -5 -23 -1 -6 3 -25
5 -43 4 -18 -2 -41 2 -51 7 -36 19 -232 33 -232 16 0 -5 -5 -4 -12 3 -7 7 -27
12 -45 12 -39 0 -66 35 -34 45 10 3 23 5 27 4 38 -6 66 28 46 57 -9 14 -68 34
-77 26 -6 -6 -136 -4 -205 3 -19 2 -59 7 -88 10 -30 3 -69 12 -87 19 -18 8
-36 12 -38 9 -11 -11 -45 9 -50 29 -5 19 -3 20 36 13 23 -5 67 -9 97 -10 58
-2 119 -13 135 -24 19 -14 76 -11 100 5 47 31 21 101 -33 87 -11 -2 -23 0 -26
6 -4 6 -17 9 -30 5 -27 -7 -156 33 -162 51 -3 6 -18 12 -34 13 -16 0 -37 5
-48 11 -10 5 -63 10 -116 10 -54 0 -103 4 -109 9 -7 6 -31 9 -54 9 -27 -1 -48
4 -59 14 -14 15 -14 17 10 23 15 4 35 2 44 -3 10 -5 47 -9 81 -8 35 1 65 -1
67 -5 8 -13 34 -9 76 9 46 20 52 52 13 73 -14 7 -25 17 -25 22 0 4 -16 1 -36
-7 -23 -9 -41 -12 -48 -6 -6 5 -33 7 -60 6 -27 -2 -59 1 -70 7 -12 6 -38 11
-59 9 -22 -1 -45 3 -53 10 -8 7 -17 9 -21 6 -3 -4 -13 -1 -21 5 -8 7 -42 16
-76 20 -78 9 -84 11 -125 32 -38 20 -30 44 10 30 13 -4 29 -7 36 -6 7 2 28 -4
49 -13 20 -8 40 -13 44 -10 5 3 34 -2 65 -10 38 -10 63 -11 75 -5 9 5 20 6 24
3 21 -21 116 -26 159 -9 40 17 53 56 19 56 -10 0 -22 4 -28 9 -13 12 -152 52
-172 50 -9 -2 -33 3 -53 9 -20 7 -41 12 -45 11 -5 -1 -12 0 -16 1 -5 1 -11 3
-15 5 -5 1 -15 4 -23 8 -8 3 -42 8 -76 10 -33 3 -70 10 -82 16 -12 6 -31 15
-42 21 -11 5 -29 10 -41 10 -11 0 -28 4 -37 9 -9 5 -30 11 -47 14 -16 3 -42
11 -56 19 -25 13 -18 14 72 11 54 -1 107 -6 116 -11 19 -10 83 -21 157 -27 33
-2 50 1 65 14 21 19 29 37 11 26 -5 -3 -20 3 -32 14 -12 12 -29 21 -39 21 -9
0 -22 6 -28 14 -6 7 -23 14 -37 14 -14 0 -31 7 -38 17 -9 12 -30 18 -71 21
-101 6 -105 7 -263 96 -18 10 -38 18 -45 18 -27 0 -257 132 -257 148 0 6 -6
12 -13 12 -7 0 -42 25 -77 55 -36 30 -69 55 -75 55 -16 0 -75 60 -75 76 0 7
-3 14 -7 14 -9 0 -47 59 -49 75 0 6 -6 21 -11 35 -6 14 -8 27 -5 30 2 3 7 -1
9 -7 3 -7 13 -13 24 -13 10 0 20 -6 20 -12 1 -7 2 -20 3 -28 0 -8 11 -16 24
-18 24 -4 47 -36 37 -52 -3 -6 -1 -10 5 -10 6 0 8 -5 5 -10 -3 -6 2 -13 12
-17 19 -6 89 -60 134 -103 14 -14 40 -33 58 -42 17 -9 35 -28 41 -42 10 -27
38 -46 67 -46 10 0 35 -11 55 -25 20 -14 45 -25 54 -25 10 0 26 -7 36 -17 11
-10 33 -16 56 -15 25 1 45 -5 58 -17 22 -20 63 -28 186 -37 46 -4 85 -8 87
-10 2 -2 12 1 23 7 10 5 24 6 31 2 6 -4 28 -9 47 -10 72 -3 154 -16 183 -28 9
-4 25 -4 34 -1 9 4 53 9 97 12 44 3 88 10 98 15 10 6 22 8 26 5 4 -2 25 8 48
23 22 15 52 31 67 35 16 4 30 13 34 21 13 35 -47 61 -75 33 -17 -17 -198 -21
-277 -7 -33 6 -118 13 -190 14 -71 2 -137 6 -145 8 -8 3 -44 8 -80 12 -36 4
-78 13 -95 20 -39 18 -65 25 -111 30 -33 5 -92 36 -149 80 -11 9 -29 15 -40
13 -23 -2 -123 52 -150 82 -10 11 -24 20 -31 20 -8 0 -23 8 -35 18 -11 9 -30
25 -41 35 -12 9 -25 17 -30 17 -4 0 -8 4 -8 10 0 5 -23 30 -50 56 -28 26 -50
53 -50 60 0 8 -5 14 -10 14 -13 0 -56 43 -53 52 2 4 -11 17 -28 29 -16 11 -28
24 -25 26 12 12 -16 43 -39 43 -25 0 -37 30 -12 30 7 0 5 5 -5 11 -11 6 -15
16 -11 26 5 11 3 14 -6 9 -9 -6 -12 -2 -10 10 2 11 -10 44 -26 74 -15 30 -29
71 -31 90 -7 80 -17 130 -24 130 -5 0 -3 14 3 30 15 39 30 33 38 -14 3 -20 11
-42 18 -49 6 -6 11 -20 11 -30 0 -10 9 -32 21 -49 12 -16 22 -40 23 -53 0 -13
4 -21 9 -18 4 2 7 -4 7 -14 0 -10 11 -30 24 -45 14 -14 22 -29 19 -32 -4 -3
-2 -6 4 -6 6 0 14 -11 17 -25 14 -56 202 -256 320 -340 167 -118 371 -199 556
-221 107 -12 332 -6 407 11 194 44 373 127 464 215 64 60 89 73 89 45 0 -40
-96 -165 -126 -165 -8 0 -14 -3 -14 -7 0 -5 -19 -17 -43 -28 -23 -11 -65 -34
-94 -51 -29 -17 -70 -34 -92 -38 -41 -6 -61 -36 -37 -55 26 -22 238 -11 265
13 10 9 29 16 43 16 17 0 32 9 43 26 10 16 22 23 32 20 20 -8 43 11 43 35 0
11 5 19 11 19 22 0 69 42 69 61 0 14 7 19 25 19 25 0 30 11 27 53 -1 9 4 17
12 17 14 0 27 45 27 92 0 15 4 30 9 33 5 3 7 12 3 20 -3 9 1 15 10 15 17 0 32
43 17 48 -12 4 -14 32 -2 32 14 0 12 244 -3 260 -13 16 -24 66 -29 135 -4 53
-59 211 -107 307 -178 356 -497 629 -842 723 -236 64 -456 62 -682 -6 -104
-32 -245 -97 -281 -130 -11 -10 -24 -19 -29 -19 -14 0 -75 -62 -75 -76 0 -6
-11 -19 -25 -28 -14 -9 -25 -22 -25 -29 0 -7 -13 -26 -30 -42 l-29 -28 3 37
c2 21 13 51 25 66 11 16 21 34 21 40 0 6 25 36 55 66 30 31 55 62 55 70 0 20
41 54 66 54 12 0 39 16 60 35 21 19 48 35 60 35 13 0 26 5 29 10 3 6 24 10 46
10 26 0 42 5 46 15 3 9 21 22 39 30 65 27 54 73 -17 69 -23 -1 -49 -8 -58 -16
-18 -15 -51 -30 -51 -23 0 11 49 55 66 58 65 12 142 31 161 39 12 6 39 11 60
12 21 1 43 5 50 9 20 12 73 15 73 4 0 -7 4 -7 12 1 7 7 31 12 54 12 24 0 46 5
49 11 4 6 23 9 44 8 20 -1 43 1 51 4 8 4 45 8 83 11 37 2 74 9 82 16 9 7 22 9
32 4 27 -12 115 -13 144 -2 20 7 35 6 57 -6 29 -15 112 -26 217 -30 45 -1 50
1 53 22 3 18 -2 23 -27 28 -17 4 -31 13 -31 20 0 18 -38 37 -61 31 -10 -3 -19
-2 -19 2 0 4 -16 8 -35 9 -19 1 -44 6 -55 12 -11 6 -26 10 -33 9 -19 -3 -71
13 -79 25 -5 7 -68 11 -178 12 -94 1 -173 4 -176 7 -3 2 -21 1 -40 -3 -19 -4
-36 -4 -39 0 -8 13 -162 -5 -181 -21 -10 -8 -18 -8 -27 -1 -17 14 -83 -4 -113
-30 -12 -10 -44 -21 -73 -25 -39 -4 -60 -13 -81 -34 -16 -16 -32 -29 -37 -29
-4 0 -30 -11 -57 -25 -27 -13 -53 -22 -58 -19 -16 10 -8 24 22 39 17 9 30 13
30 9 0 -4 12 5 26 20 15 14 35 26 44 26 10 0 30 15 46 34 33 37 93 55 95 27 1
-12 2 -12 6 2 3 12 11 16 23 12 11 -4 23 1 32 13 16 23 38 31 97 38 26 3 66
10 91 16 25 5 59 12 75 15 75 12 70 73 -7 73 -22 0 -22 0 -3 14 11 7 40 17 65
21 66 11 82 22 78 53 l-3 27 -84 -3 c-47 -1 -91 -7 -98 -13 -7 -6 -19 -9 -28
-6 -8 4 -17 2 -20 -3 -10 -16 -55 -12 -55 5 0 19 32 52 51 52 8 0 34 3 59 7
76 11 142 17 205 21 96 6 139 18 143 39 2 10 -1 23 -8 30 -12 12 -160 17 -160
5 0 -4 -16 -7 -35 -6 -19 1 -35 3 -35 7 0 13 43 30 91 35 29 4 57 9 62 12 5 3
55 7 112 8 57 2 113 8 125 15 12 6 29 9 37 6 21 -9 63 20 63 43 0 27 -26 44
-60 39 -17 -3 -33 -1 -36 3 -2 5 -10 6 -17 3 -7 -2 -30 -6 -52 -7 -22 -1 -45
-6 -51 -10 -7 -4 -23 -7 -35 -6 -13 0 -48 -2 -76 -5 -57 -5 -66 -1 -30 15 12
5 33 16 47 24 14 8 37 15 52 15 14 0 28 4 30 9 2 6 30 13 63 16 69 8 52 8 255
2 85 -2 163 0 173 5 22 11 23 61 1 79 -18 14 -106 18 -207 9 -32 -3 -61 -2
-64 3 -8 13 19 38 35 32 8 -3 20 1 26 9 9 13 142 30 216 28 216 -6 240 -5 260
13 46 41 10 74 -78 71 -35 0 -66 2 -69 7 -2 4 -9 4 -16 0 -6 -3 -23 -7 -38 -8
-23 -1 -26 1 -16 16 6 10 29 19 58 23 27 4 51 11 54 17 4 5 14 7 24 4 9 -3 39
0 67 6 27 6 60 12 74 14 14 2 27 4 30 5 3 1 9 2 14 1 5 -1 16 1 25 5 9 4 25 8
36 9 131 19 196 27 227 28 20 2 40 6 44 10 11 10 34 9 34 -3z m1745 -600 c3
-5 1 -10 -4 -10 -6 0 -11 5 -11 10 0 6 2 10 4 10 3 0 8 -4 11 -10z m550 -710
c3 -6 -1 -7 -9 -4 -18 7 -21 14 -7 14 6 0 13 -4 16 -10z m-4157 -369 c3 -16
-4 -24 -27 -32 -19 -7 -31 -18 -31 -29 0 -10 -7 -23 -16 -30 -12 -11 -18 -10
-32 4 -20 20 -7 49 24 54 11 1 27 16 37 33 19 34 40 34 45 0z m4006 23 c9 -3
16 -14 16 -24 0 -11 10 -20 30 -23 23 -5 30 -12 30 -29 0 -13 -5 -30 -10 -38
-9 -13 -13 -12 -30 9 -11 13 -20 29 -20 36 0 7 -11 16 -25 19 -24 6 -34 34
-18 49 8 8 8 8 27 1z m-3610 -18 c24 -1 51 -8 59 -14 7 -7 16 -9 19 -6 8 8 88
-20 129 -45 19 -12 46 -26 61 -32 14 -6 29 -17 32 -26 4 -8 13 -13 21 -9 8 3
15 2 15 -2 0 -5 18 -18 39 -30 26 -15 42 -32 46 -50 3 -15 20 -43 38 -62 31
-34 32 -37 32 -132 0 -53 -2 -98 -5 -100 -55 -44 -62 -47 -138 -47 -50 0 -82
5 -92 14 -8 7 -32 15 -53 18 -21 3 -46 12 -56 21 -10 9 -22 16 -28 16 -5 0
-18 8 -27 19 -9 10 -31 22 -48 25 -17 3 -37 15 -45 26 -8 11 -22 20 -32 20
-10 0 -31 10 -47 22 -15 13 -35 23 -43 23 -9 0 -21 11 -27 24 -14 28 -32 41
-59 41 -33 1 -63 35 -76 83 -11 44 -9 50 18 99 37 65 66 87 121 92 24 2 49 9
55 15 6 6 19 9 29 6 9 -4 37 -7 62 -9z m3216 4 c22 6 38 6 45 0 7 -6 34 -13
61 -16 45 -5 111 -45 113 -67 1 -5 11 -22 22 -39 20 -28 21 -34 9 -85 -11 -53
-14 -56 -63 -78 -29 -12 -61 -32 -71 -44 -11 -11 -27 -21 -36 -21 -9 0 -25 -9
-35 -20 -10 -11 -26 -20 -35 -20 -9 0 -29 -13 -45 -30 -16 -16 -35 -30 -43
-30 -8 0 -26 -8 -40 -18 -15 -10 -47 -27 -72 -37 -25 -10 -64 -27 -87 -37 -28
-12 -66 -18 -113 -18 -69 0 -73 1 -107 35 -31 31 -35 40 -29 68 4 17 9 58 10
90 2 50 7 64 34 93 18 19 32 42 32 51 0 20 69 83 90 83 8 0 24 11 34 25 10 14
27 25 36 25 10 0 23 7 30 15 7 8 30 20 51 25 22 6 39 15 39 20 0 6 16 10 35
10 19 0 35 5 35 11 0 5 4 8 8 5 4 -2 14 -1 22 4 8 5 19 5 25 0 7 -6 25 -6 45
0z m-3760 -140 c13 -24 -14 -52 -44 -48 -27 4 -35 47 -11 64 20 15 42 8 55
-16z m4334 4 c9 -23 -23 -56 -48 -52 -31 4 -34 46 -4 57 34 14 45 13 52 -5z
m-4391 -98 c3 -8 -1 -20 -9 -27 -12 -10 -18 -9 -31 3 -8 9 -12 21 -9 27 10 16
43 14 49 -3z m4425 -8 c4 -19 -27 -33 -41 -19 -14 14 -1 40 20 37 10 -2 19
-10 21 -18z m-3148 -160 c11 -18 20 -43 20 -55 0 -12 7 -26 15 -30 14 -8 27
-53 42 -145 4 -29 2 -39 -10 -44 -20 -7 -47 18 -47 42 0 10 -7 25 -16 35 -9
10 -17 33 -19 52 -3 31 -10 48 -52 120 -8 14 -9 27 -2 39 15 28 47 22 69 -14z
m1899 14 c8 -14 5 -29 -10 -58 -12 -21 -25 -43 -30 -48 -5 -6 -9 -23 -9 -40 0
-16 -7 -37 -15 -45 -8 -9 -20 -34 -27 -56 -14 -43 -44 -58 -55 -29 -3 10 1 39
10 65 9 25 17 58 17 73 0 14 4 26 9 26 5 0 14 15 21 33 29 79 40 97 59 97 11
0 25 -8 30 -18z m-3355 -318 c3 -9 6 -35 6 -59 0 -24 5 -47 11 -50 6 -5 4 -12
-8 -20 -16 -12 -20 -11 -30 9 -14 26 -20 107 -9 124 10 17 23 15 30 -4z m4776
-26 c0 -10 -5 -39 -11 -64 -8 -32 -16 -44 -27 -42 -13 2 -15 14 -13 58 3 68
16 96 37 79 8 -6 14 -20 14 -31z m-494 -1293 c-20 -15 -36 -19 -36 -10 0 5 38
23 50 24 3 0 -4 -6 -14 -14z m-2851 -665 c3 -5 -1 -10 -9 -10 -8 0 -18 5 -21
10 -3 6 1 10 9 10 8 0 18 -4 21 -10z m1929 -2 c-3 -4 -14 -8 -25 -8 -11 0 -18
4 -15 8 2 4 14 8 25 8 11 0 17 -4 15 -8z m-554 -970 c0 -25 -12 -58 -19 -53
-10 6 -1 65 10 65 5 0 9 -6 9 -12z m-994 -446 c-3 -5 -15 -12 -27 -15 -16 -4
-19 -3 -10 6 6 6 11 20 11 31 0 19 1 19 16 4 9 -9 14 -20 10 -26z m-1656
-1096 c0 -11 -19 -15 -25 -6 -3 5 1 10 9 10 9 0 16 -2 16 -4z m4524 -109 c7
-11 7 -20 0 -27 -15 -15 -49 13 -41 34 8 20 26 17 41 -7z m-4574 3 c0 -5 -10
-19 -22 -30 -21 -19 -23 -20 -29 -3 -4 11 -1 23 9 31 19 14 42 16 42 2z"/>
<path d="M4220 8180 c0 -5 5 -10 10 -10 6 0 10 5 10 10 0 6 -4 10 -10 10 -5 0
-10 -4 -10 -10z"/>
<path d="M4870 8083 c-86 -28 -116 -97 -80 -181 32 -72 34 -72 475 -72 417 0
434 2 468 54 29 44 31 81 8 130 -38 77 -34 76 -473 75 -210 0 -390 -3 -398 -6z"/>
<path d="M5188 7651 l-33 -29 -5 -229 c-3 -125 -2 -243 3 -261 12 -50 55 -91
102 -98 35 -5 44 -2 76 28 20 18 40 44 44 58 5 14 7 126 6 249 -1 196 -3 228
-19 255 -37 63 -120 76 -174 27z"/>
<path d="M3785 7598 c-90 -17 -100 -21 -100 -48 0 -24 2 -25 79 -26 84 -1 116
14 116 55 0 17 -21 33 -38 30 -4 -1 -29 -6 -57 -11z"/>
<path d="M6673 7600 c-13 -5 -23 -18 -23 -28 0 -20 55 -57 70 -47 6 4 16 2 23
-3 16 -12 74 -7 92 8 35 29 -1 60 -72 64 -18 1 -35 5 -39 9 -9 9 -23 8 -51 -3z"/>
<path d="M4169 7142 c-10 -7 -19 -21 -19 -31 0 -22 26 -34 158 -76 12 -4 22
-11 22 -15 0 -11 50 -31 61 -24 6 3 13 -3 16 -15 3 -12 11 -21 18 -21 8 0 26
-11 42 -23 15 -13 40 -27 55 -31 62 -15 148 -91 148 -131 0 -8 11 -20 24 -25
14 -5 32 -25 42 -45 9 -19 27 -44 40 -54 13 -10 24 -23 24 -29 0 -5 7 -13 15
-16 9 -3 15 -11 14 -18 -3 -21 12 -48 27 -48 8 0 13 -4 11 -8 -1 -4 6 -24 15
-43 22 -45 44 -99 53 -127 3 -12 15 -27 25 -32 11 -6 17 -17 14 -24 -6 -17 29
-56 50 -56 17 0 56 46 56 66 0 7 -5 25 -11 41 -6 15 -12 44 -14 64 -2 20 -8
45 -13 55 -12 21 -26 75 -24 87 1 4 -3 7 -8 7 -6 0 -10 6 -10 14 0 8 -9 21
-20 29 -11 7 -27 31 -35 53 -9 21 -23 53 -31 71 -8 17 -14 38 -14 47 0 9 -11
18 -25 22 -16 4 -27 16 -31 33 -9 34 -23 51 -43 51 -21 0 -56 37 -66 68 -4 14
-21 30 -40 38 -19 7 -36 18 -40 24 -3 5 -15 10 -26 10 -10 0 -19 5 -19 10 0 6
-7 10 -15 10 -8 0 -15 5 -15 10 0 6 -7 10 -15 10 -8 0 -15 4 -15 9 0 8 -92 33
-172 46 -20 3 -38 10 -40 15 -5 16 -147 18 -169 2z"/>
<path d="M6200 7152 c-8 -3 -21 -10 -29 -16 -7 -6 -29 -12 -48 -13 -19 -1 -50
-11 -69 -22 -19 -12 -41 -21 -48 -21 -7 0 -30 -11 -50 -25 -20 -14 -43 -25
-50 -25 -7 0 -21 -9 -31 -20 -10 -11 -26 -20 -35 -20 -19 0 -40 -19 -40 -37 0
-18 -61 -72 -81 -73 -9 0 -22 -12 -30 -27 -8 -16 -20 -32 -27 -36 -12 -8 -34
-51 -36 -72 -2 -21 -69 -145 -78 -145 -10 0 -39 -63 -43 -95 -2 -11 -13 -54
-24 -95 -12 -41 -21 -87 -21 -102 0 -27 31 -58 59 -58 22 0 50 30 44 47 -4 9
3 22 17 33 12 9 24 28 25 41 2 13 17 51 34 84 17 33 31 66 31 73 0 6 7 12 15
12 8 0 15 8 15 19 0 10 7 24 15 31 8 7 15 19 15 27 0 7 7 16 15 19 8 4 15 12
15 20 0 8 6 14 14 14 8 0 17 14 21 31 4 18 16 34 29 39 20 7 43 27 45 40 9 37
17 49 44 65 18 11 41 27 51 37 11 10 26 18 33 18 7 0 31 11 53 25 22 14 44 25
50 25 5 0 15 9 22 20 7 11 23 20 36 20 12 0 30 9 39 19 9 11 22 17 29 14 8 -3
14 -1 14 4 0 6 19 16 43 23 66 21 97 42 97 66 0 12 -8 25 -17 29 -21 9 -141
14 -163 7z"/>
<path d="M4986 5101 c-12 -13 -15 -27 -10 -45 9 -37 90 -106 124 -106 15 0 30
-3 34 -7 4 -4 18 -9 31 -10 38 -5 52 34 30 81 -20 42 -68 86 -95 86 -10 0 -22
5 -25 10 -11 17 -71 11 -89 -9z"/>
<path d="M5450 5108 c-68 -19 -129 -100 -116 -154 6 -23 11 -25 34 -19 15 4
44 9 64 12 25 3 50 18 82 49 50 48 58 80 28 107 -21 19 -40 20 -92 5z"/>
<path d="M4185 5060 c-8 -14 3 -30 21 -30 16 0 16 2 8 24 -7 18 -20 21 -29 6z"/>
<path d="M6300 5050 c0 -15 7 -20 25 -20 18 0 25 5 25 20 0 15 -7 20 -25 20
-18 0 -25 -5 -25 -20z"/>
<path d="M3958 4669 c-9 -6 -10 -15 -2 -36 9 -27 12 -28 83 -30 75 -2 93 5 99
39 1 9 -6 19 -18 23 -31 10 -147 13 -162 4z"/>
<path d="M6438 4672 c-20 -2 -30 -10 -34 -28 -9 -36 11 -54 54 -49 20 2 51 4
69 4 40 1 60 30 41 60 -12 20 -43 23 -130 13z"/>
<path d="M3768 4593 c7 -3 16 -2 19 1 4 3 -2 6 -13 5 -11 0 -14 -3 -6 -6z"/>
<path d="M5015 4377 c-11 -6 -35 -12 -53 -14 -71 -5 -116 -68 -74 -106 19 -18
124 -19 155 -1 10 6 41 7 75 3 53 -6 315 -5 337 2 6 2 19 -2 30 -8 11 -6 46
-11 78 -11 46 0 62 4 78 21 10 11 19 26 19 31 -1 16 -25 46 -37 46 -6 0 -16 7
-23 15 -8 10 -21 13 -37 9 -16 -4 -28 -2 -34 7 -11 19 -483 24 -514 6z"/>
<path d="M5370 2045 c-14 -8 -39 -14 -55 -15 -17 0 -36 -5 -42 -11 -8 -8 -13
-8 -17 0 -4 6 -19 11 -33 11 -14 0 -43 5 -64 12 -34 10 -42 9 -59 -7 -11 -10
-20 -23 -20 -29 0 -16 63 -64 94 -72 14 -3 29 -10 32 -15 9 -15 99 -10 135 8
49 23 109 72 109 88 0 13 -37 46 -50 45 -3 -1 -16 -7 -30 -15z"/>
<path d="M3805 1842 c-27 -15 -57 -26 -66 -24 -9 1 -33 -13 -54 -33 -21 -19
-44 -35 -52 -35 -13 0 -83 -66 -83 -79 0 -15 -85 -80 -113 -87 -37 -8 -76 -34
-77 -50 0 -7 -9 -14 -20 -17 -13 -3 -20 -14 -20 -30 0 -31 -29 -57 -64 -57
-15 0 -29 -7 -32 -15 -8 -20 14 -45 32 -38 8 3 23 -2 33 -12 22 -19 101 -15
127 6 10 8 18 9 22 3 11 -15 122 -35 141 -25 18 9 67 7 95 -4 10 -4 21 -4 25
1 3 5 33 9 66 9 35 0 65 5 73 12 7 7 32 13 55 14 91 2 92 2 95 31 3 23 -2 30
-25 38 -15 6 -40 17 -56 26 -15 8 -31 13 -36 9 -15 -9 -102 18 -96 30 3 5 8
18 11 28 4 9 15 17 25 17 11 0 19 5 19 11 0 5 4 8 8 5 12 -7 64 43 59 57 -5
17 -88 31 -108 19 -22 -14 -57 -4 -61 17 -4 18 28 51 49 51 14 0 91 50 120 77
19 17 16 33 -9 54 -26 24 -23 24 -83 -9z"/>
<path d="M6645 1847 c-32 -27 -26 -51 18 -73 16 -9 39 -25 50 -35 12 -10 29
-19 38 -19 18 0 59 -36 59 -52 0 -4 -9 -12 -21 -18 -16 -9 -25 -8 -42 3 -15 9
-30 11 -45 6 -12 -5 -28 -6 -35 -3 -19 7 -40 -21 -33 -43 3 -11 31 -31 61 -47
50 -25 73 -56 42 -56 -7 0 -19 -6 -25 -12 -13 -13 -16 -14 -64 -16 -15 -1 -33
-8 -41 -16 -7 -8 -25 -16 -38 -18 -19 -2 -24 -9 -24 -33 0 -32 -2 -32 97 -34
20 -1 43 -7 50 -15 9 -8 30 -12 56 -10 23 1 58 -2 78 -8 24 -6 40 -6 46 0 7 7
19 7 35 1 14 -5 28 -7 33 -4 4 2 36 7 71 10 35 3 76 7 91 9 16 2 30 0 34 -5 7
-12 81 -12 86 1 2 5 18 12 37 14 18 2 37 10 42 17 11 18 -8 39 -37 39 -15 0
-24 6 -24 15 0 8 -7 15 -15 15 -8 0 -15 8 -15 17 0 23 -98 113 -123 113 -17 0
-50 25 -99 75 -11 11 -34 35 -51 53 -17 17 -37 32 -44 32 -7 0 -13 5 -13 10 0
6 -9 10 -20 10 -10 0 -24 8 -29 19 -6 11 -26 21 -50 25 -22 3 -46 12 -53 19
-38 34 -56 38 -83 14z"/>
</g>
</svg>
